<?xml version="1.0" encoding="utf-8"?>
<!-- Generator: Adobe Illustrator 15.0.2, SVG Export Plug-In . SVG Version: 6.00 Build 0)  -->
<!DOCTYPE svg PUBLIC "-//W3C//DTD SVG 1.1//EN" "http://www.w3.org/Graphics/SVG/1.1/DTD/svg11.dtd">
<svg version="1.1" id="Layer_1" xmlns="http://www.w3.org/2000/svg" xmlns:xlink="http://www.w3.org/1999/xlink" x="0px" y="0px"
	 width="1024px" height="1024px" viewBox="0 0 1024 1024" enable-background="new 0 0 1024 1024" xml:space="preserve">
<g>
	<path d="M512,332.2c70.4,0,127.6-57.2,127.6-127.6C639.6,134.4,582.2,77,512,77s-127.6,57.2-127.6,127.6S441.6,332.2,512,332.2z"/>
	<path d="M267.8,422.2c47.4,0,86.2-38.6,86.2-86.2c0-47.8-38.8-86.4-86.2-86.4c-47.6,0-86.4,38.8-86.4,86.4S220.2,422.2,267.8,422.2
		z"/>
	<path d="M95.4,471c32,0,58-26,58-58c-0.2-32-26.2-58-58-58c-32,0-58,26-58,58S63.4,471,95.4,471z"/>
	<path d="M928.8,471c32,0,58-26,58-58s-26-58-58-58s-58,26-58,58S896.8,471,928.8,471z"/>
	<path d="M756.2,422.2c47.6,0,86.399-38.6,86.399-86.2c0-47.8-38.8-86.4-86.399-86.4c-47.601,0-86.2,38.8-86.2,86.4
		S708.6,422.2,756.2,422.2z"/>
	<path d="M928.8,503.8c-9.2,0-18.2,1.8-26.8,4.4c14.6,25,23.8,53.8,23.8,85v181h98.2v-175C1024,546.6,981.2,503.8,928.8,503.8z"/>
	<path d="M756.2,455.4c-13.601,0-26.4,2.6-38.8,6.199C733.6,493.2,743.6,528.4,743.6,566.2v275.2H894V593.2
		C894,517.2,832.2,455.4,756.2,455.4z"/>
	<path d="M511.8,366.2c-110.399,0-200,89.8-200,200v355h400v-355C711.8,455.8,622,366.2,511.8,366.2z"/>
	<path d="M0,599.2v175h98.4v-181c0-31,9-60,23.8-85c-8.6-2.601-17.4-4.4-26.8-4.4C42.8,503.8,0,546.6,0,599.2z"/>
	<path d="M129.8,593.2v248.2h150.6V566.2c0-37.8,10-73,26-104.601c-12.4-3.6-25.2-6.199-38.8-6.199
		C191.6,455.4,129.8,517.2,129.8,593.2z"/>
</g>
</svg>
